<?xml version="1.0" standalone="no"?>
<!DOCTYPE svg PUBLIC "-//W3C//DTD SVG 20010904//EN"
 "http://www.w3.org/TR/2001/REC-SVG-20010904/DTD/svg10.dtd">
<svg version="1.0" xmlns="http://www.w3.org/2000/svg"
 width="860.000000pt" height="1201.000000pt" viewBox="0 0 860.000000 1201.000000"
 preserveAspectRatio="xMidYMid meet">

<g transform="translate(0.000000,1201.000000) scale(0.100000,-0.100000)"
fill="#000000" stroke="none">
<path d="M742 11573 c-5 -16 -105 -277 -221 -580 -116 -304 -211 -555 -211
-558 0 -3 37 -5 82 -3 l81 3 52 145 51 145 269 0 268 0 52 -145 52 -145 83 -3
c48 -2 80 1 78 6 -1 6 -102 269 -223 586 l-220 576 -91 0 c-91 0 -92 0 -102
-27z m213 -422 c58 -155 105 -284 105 -287 0 -2 -97 -4 -215 -4 -118 0 -215 3
-215 7 0 5 120 333 202 552 5 13 11 22 13 19 3 -3 52 -132 110 -287z"/>
<path d="M685 9758 c-115 -149 -216 -281 -224 -293 -14 -22 -6 -34 169 -261
101 -132 203 -262 226 -291 l42 -52 29 37 c16 20 114 147 218 282 103 135 192
250 197 256 5 7 -68 110 -203 285 -116 151 -218 282 -227 291 -16 16 -30 1
-227 -254z"/>
<path d="M4244 7793 c-56 -101 -197 -324 -281 -448 -155 -225 -534 -720 -782
-1019 l-131 -158 43 -53 c23 -29 121 -151 218 -271 353 -440 842 -1122 954
-1331 l28 -53 66 113 c223 377 726 1067 1068 1464 l114 132 -122 142 c-366
427 -849 1086 -1075 1466 -27 46 -52 83 -56 83 -3 0 -23 -30 -44 -67z"/>
<path d="M7486 3271 c-119 -155 -219 -287 -222 -294 -3 -8 22 -49 55 -93 181
-238 378 -488 386 -490 8 -2 157 185 402 508 l52 68 -205 268 c-113 147 -216
277 -228 290 l-23 23 -217 -280z"/>
<path d="M7230 1979 c0 -10 361 -965 427 -1131 l15 -38 88 0 c74 0 89 3 95 18
66 164 435 1139 435 1148 0 19 -145 20 -157 2 -4 -7 -30 -76 -58 -153 l-50
-140 -263 -3 -262 -2 -10 22 c-6 13 -32 82 -58 153 l-47 130 -77 3 c-56 2 -78
-1 -78 -9z m740 -436 c1 -15 -203 -563 -209 -563 -7 0 -211 547 -211 563 0 4
95 7 210 7 116 0 210 -3 210 -7z"/>
</g>
</svg>
